<svg version="1.1" xmlns="http://www.w3.org/2000/svg" xmlns:xlink="http://www.w3.org/1999/xlink" width="484" height="348"><defs/><g><g transform="translate(-86,-70) scale(1,1)"><rect fill="#C0C0C0" stroke="none" x="103" y="87" width="185.60000000000002" height="15" opacity="0.2"/></g><g transform="translate(-86,-70) scale(1,1)"><rect fill="#C0C0C0" stroke="none" x="103" y="101" width="464" height="314" opacity="0.2"/></g><g transform="translate(-86,-70) scale(1,1)"><rect fill="#ffffff" stroke="none" x="96" y="95" width="464" height="313"/></g><g transform="translate(-86,-70) scale(1,1)"><path fill="none" stroke="#000000" d="M 96 95 L 560 95 L 560 408 L 96 408 L 96 95 Z Z" stroke-miterlimit="10"/></g><g transform="translate(-86,-70) scale(1,1)"><rect fill="#ffffff" stroke="none" x="96" y="80" width="185.60000000000002" height="15"/></g><g transform="translate(-86,-70) scale(1,1)"><path fill="none" stroke="#000000" d="M 96 80 L 281.6 80 L 281.6 95 L 96 95 L 96 80 Z Z" stroke-miterlimit="10"/></g><g transform="translate(-86,-70) scale(1,1)"><rect fill="#ffffff" stroke="none" x="96" y="94" width="464" height="314"/></g><g transform="translate(-86,-70) scale(1,1)"><path fill="none" stroke="#000000" d="M 96 94 L 560 94 L 560 408 L 96 408 L 96 94 Z Z" stroke-miterlimit="10"/></g><g transform="translate(-86,-70) scale(1,1)"><g><path fill="none" stroke="none"/><text fill="#000000" stroke="none" font-family="Arial" font-size="13px" font-style="normal" font-weight="bold" text-decoration="none" x="298.010498046875" y="114.5">CodePass</text></g></g><g transform="translate(-86,-70) scale(1,1)"><rect fill="#C0C0C0" stroke="none" x="359" y="167" width="54.39999999999998" height="15" opacity="0.2"/></g><g transform="translate(-86,-70) scale(1,1)"><rect fill="#C0C0C0" stroke="none" x="359" y="181" width="136" height="58" opacity="0.2"/></g><g transform="translate(-86,-70) scale(1,1)"><rect fill="#ffffff" stroke="none" x="352" y="175" width="136" height="57"/></g><g transform="translate(-86,-70) scale(1,1)"><path fill="none" stroke="#000000" d="M 352 175 L 488 175 L 488 232 L 352 232 L 352 175 Z Z" stroke-miterlimit="10"/></g><g transform="translate(-86,-70) scale(1,1)"><rect fill="#ffffff" stroke="none" x="352" y="160" width="54.39999999999998" height="15"/></g><g transform="translate(-86,-70) scale(1,1)"><path fill="none" stroke="#000000" d="M 352 160 L 406.4 160 L 406.4 175 L 352 175 L 352 160 Z Z" stroke-miterlimit="10"/></g><g transform="translate(-86,-70) scale(1,1)"><rect fill="#ffffff" stroke="none" x="352" y="174" width="136" height="58"/></g><g transform="translate(-86,-70) scale(1,1)"><path fill="none" stroke="#000000" d="M 352 174 L 488 174 L 488 232 L 352 232 L 352 174 Z Z" stroke-miterlimit="10"/></g><g transform="translate(-86,-70) scale(1,1)"><path fill="none" stroke="#000000" d="M 398.4 163 L 398.4 167" stroke-miterlimit="10"/></g><g transform="translate(-86,-70) scale(1,1)"><path fill="none" stroke="#000000" d="M 395.4 171 L 395.4 167 L 401.4 167" stroke-miterlimit="10"/></g><g transform="translate(-86,-70) scale(1,1)"><path fill="none" stroke="#000000" d="M 401.4 171 L 401.4 167 L 395.4 167" stroke-miterlimit="10"/></g><g transform="translate(-86,-70) scale(1,1)"><g><path fill="none" stroke="none"/><text fill="#000000" stroke="none" font-family="Arial" font-size="13px" font-style="normal" font-weight="bold" text-decoration="none" x="361.490478515625" y="194.5">docker容器管理模块</text></g></g><g transform="translate(-86,-70) scale(1,1)"><rect fill="#C0C0C0" stroke="none" x="359" y="295" width="54.39999999999998" height="15" opacity="0.2"/></g><g transform="translate(-86,-70) scale(1,1)"><rect fill="#C0C0C0" stroke="none" x="359" y="309" width="136" height="58" opacity="0.2"/></g><g transform="translate(-86,-70) scale(1,1)"><rect fill="#ffffff" stroke="none" x="352" y="303" width="136" height="57"/></g><g transform="translate(-86,-70) scale(1,1)"><path fill="none" stroke="#000000" d="M 352 303 L 488 303 L 488 360 L 352 360 L 352 303 Z Z" stroke-miterlimit="10"/></g><g transform="translate(-86,-70) scale(1,1)"><rect fill="#ffffff" stroke="none" x="352" y="288" width="54.39999999999998" height="15"/></g><g transform="translate(-86,-70) scale(1,1)"><path fill="none" stroke="#000000" d="M 352 288 L 406.4 288 L 406.4 303 L 352 303 L 352 288 Z Z" stroke-miterlimit="10"/></g><g transform="translate(-86,-70) scale(1,1)"><rect fill="#ffffff" stroke="none" x="352" y="302" width="136" height="58"/></g><g transform="translate(-86,-70) scale(1,1)"><path fill="none" stroke="#000000" d="M 352 302 L 488 302 L 488 360 L 352 360 L 352 302 Z Z" stroke-miterlimit="10"/></g><g transform="translate(-86,-70) scale(1,1)"><path fill="none" stroke="#000000" d="M 398.4 291 L 398.4 295" stroke-miterlimit="10"/></g><g transform="translate(-86,-70) scale(1,1)"><path fill="none" stroke="#000000" d="M 395.4 299 L 395.4 295 L 401.4 295" stroke-miterlimit="10"/></g><g transform="translate(-86,-70) scale(1,1)"><path fill="none" stroke="#000000" d="M 401.4 299 L 401.4 295 L 395.4 295" stroke-miterlimit="10"/></g><g transform="translate(-86,-70) scale(1,1)"><g><path fill="none" stroke="none"/><text fill="#000000" stroke="none" font-family="Arial" font-size="13px" font-style="normal" font-weight="bold" text-decoration="none" x="381" y="322.5">数据统计模块</text></g></g><g transform="translate(-86,-70) scale(1,1)"><rect fill="#C0C0C0" stroke="none" x="159" y="167" width="51.19999999999999" height="15" opacity="0.2"/></g><g transform="translate(-86,-70) scale(1,1)"><rect fill="#C0C0C0" stroke="none" x="159" y="181" width="128" height="58" opacity="0.2"/></g><g transform="translate(-86,-70) scale(1,1)"><rect fill="#ffffff" stroke="none" x="152" y="175" width="128" height="57"/></g><g transform="translate(-86,-70) scale(1,1)"><path fill="none" stroke="#000000" d="M 152 175 L 280 175 L 280 232 L 152 232 L 152 175 Z Z" stroke-miterlimit="10"/></g><g transform="translate(-86,-70) scale(1,1)"><rect fill="#ffffff" stroke="none" x="152" y="160" width="51.19999999999999" height="15"/></g><g transform="translate(-86,-70) scale(1,1)"><path fill="none" stroke="#000000" d="M 152 160 L 203.2 160 L 203.2 175 L 152 175 L 152 160 Z Z" stroke-miterlimit="10"/></g><g transform="translate(-86,-70) scale(1,1)"><rect fill="#ffffff" stroke="none" x="152" y="174" width="128" height="58"/></g><g transform="translate(-86,-70) scale(1,1)"><path fill="none" stroke="#000000" d="M 152 174 L 280 174 L 280 232 L 152 232 L 152 174 Z Z" stroke-miterlimit="10"/></g><g transform="translate(-86,-70) scale(1,1)"><path fill="none" stroke="#000000" d="M 195.2 163 L 195.2 167" stroke-miterlimit="10"/></g><g transform="translate(-86,-70) scale(1,1)"><path fill="none" stroke="#000000" d="M 192.2 171 L 192.2 167 L 198.2 167" stroke-miterlimit="10"/></g><g transform="translate(-86,-70) scale(1,1)"><path fill="none" stroke="#000000" d="M 198.2 171 L 198.2 167 L 192.2 167" stroke-miterlimit="10"/></g><g transform="translate(-86,-70) scale(1,1)"><g><path fill="none" stroke="none"/><text fill="#000000" stroke="none" font-family="Arial" font-size="13px" font-style="normal" font-weight="bold" text-decoration="none" x="177" y="194.5">用户管理模块</text></g></g><g transform="translate(-86,-70) scale(1,1)"><rect fill="#C0C0C0" stroke="none" x="159" y="295" width="51.19999999999999" height="15" opacity="0.2"/></g><g transform="translate(-86,-70) scale(1,1)"><rect fill="#C0C0C0" stroke="none" x="159" y="309" width="128" height="58" opacity="0.2"/></g><g transform="translate(-86,-70) scale(1,1)"><rect fill="#ffffff" stroke="none" x="152" y="303" width="128" height="57"/></g><g transform="translate(-86,-70) scale(1,1)"><path fill="none" stroke="#000000" d="M 152 303 L 280 303 L 280 360 L 152 360 L 152 303 Z Z" stroke-miterlimit="10"/></g><g transform="translate(-86,-70) scale(1,1)"><rect fill="#ffffff" stroke="none" x="152" y="288" width="51.19999999999999" height="15"/></g><g transform="translate(-86,-70) scale(1,1)"><path fill="none" stroke="#000000" d="M 152 288 L 203.2 288 L 203.2 303 L 152 303 L 152 288 Z Z" stroke-miterlimit="10"/></g><g transform="translate(-86,-70) scale(1,1)"><rect fill="#ffffff" stroke="none" x="152" y="302" width="128" height="58"/></g><g transform="translate(-86,-70) scale(1,1)"><path fill="none" stroke="#000000" d="M 152 302 L 280 302 L 280 360 L 152 360 L 152 302 Z Z" stroke-miterlimit="10"/></g><g transform="translate(-86,-70) scale(1,1)"><path fill="none" stroke="#000000" d="M 195.2 291 L 195.2 295" stroke-miterlimit="10"/></g><g transform="translate(-86,-70) scale(1,1)"><path fill="none" stroke="#000000" d="M 192.2 299 L 192.2 295 L 198.2 295" stroke-miterlimit="10"/></g><g transform="translate(-86,-70) scale(1,1)"><path fill="none" stroke="#000000" d="M 198.2 299 L 198.2 295 L 192.2 295" stroke-miterlimit="10"/></g><g transform="translate(-86,-70) scale(1,1)"><g><path fill="none" stroke="none"/><text fill="#000000" stroke="none" font-family="Arial" font-size="13px" font-style="normal" font-weight="bold" text-decoration="none" x="177" y="322.5">问答管理模块</text></g></g></g></svg>